<?xml version="1.0" standalone="no"?>
<!DOCTYPE svg PUBLIC "-//W3C//DTD SVG 20010904//EN"
 "http://www.w3.org/TR/2001/REC-SVG-20010904/DTD/svg10.dtd">
<svg version="1.0" xmlns="http://www.w3.org/2000/svg"
 width="700.000000pt" height="700.000000pt" viewBox="0 0 700.000000 700.000000"
 preserveAspectRatio="xMidYMid meet">
<metadata>
Created by potrace 1.11, written by Peter Selinger 2001-2013
</metadata>
<g transform="translate(0.000000,700.000000) scale(0.100000,-0.100000)"
fill="#000000" stroke="none">
<path d="M3335 6929 c-670 -42 -1276 -313 -1751 -784 -198 -195 -321 -353
-452 -577 -124 -211 -258 -551 -298 -753 -59 -299 -63 -343 -69 -785 -2 -184
-6 -355 -9 -380 -2 -25 -7 -99 -11 -165 -4 -66 -9 -145 -11 -175 -1 -30 -5
-107 -9 -170 -3 -63 -8 -137 -10 -165 -2 -27 -7 -102 -10 -165 -3 -63 -8 -146
-10 -185 -3 -38 -7 -115 -10 -170 -3 -55 -7 -131 -10 -170 -2 -38 -7 -108 -10
-155 -3 -47 -7 -125 -10 -175 -3 -49 -8 -135 -11 -190 -13 -205 -26 -442 -28
-500 l-1 -40 170 0 170 0 -1 85 c-1 81 -10 266 -19 382 -5 59 -13 217 -20 354
-2 50 -7 120 -9 155 -3 35 -8 114 -11 174 -3 61 -8 137 -10 170 -2 33 -6 114
-10 180 -4 66 -8 140 -10 165 -2 25 -7 97 -10 160 -3 63 -8 144 -10 180 -3 36
-7 110 -10 165 -3 55 -7 132 -10 170 l-5 70 25 -95 c80 -306 172 -518 358
-825 63 -105 232 -311 357 -435 159 -160 179 -177 323 -283 53 -39 97 -78 97
-87 0 -8 -6 -49 -14 -90 -8 -41 -17 -93 -20 -115 -3 -22 -9 -62 -15 -90 -5
-27 -12 -70 -16 -95 -3 -25 -8 -56 -10 -70 -3 -14 -7 -41 -10 -60 -26 -156
-87 -520 -91 -540 -2 -14 -7 -41 -10 -60 -3 -19 -14 -84 -25 -144 -10 -60 -16
-112 -13 -115 3 -3 120 -6 261 -6 l255 0 -6 50 c-3 27 -12 86 -20 130 -8 44
-18 98 -21 120 -3 22 -21 134 -41 250 -19 116 -37 221 -39 235 -2 14 -24 146
-49 295 -25 148 -44 270 -43 271 1 2 25 -11 52 -28 176 -110 524 -253 724
-299 25 -6 53 -12 61 -14 155 -36 270 -52 425 -61 55 -3 105 -7 112 -9 9 -3 8
-16 -2 -52 -26 -92 -55 -192 -135 -464 -45 -151 -106 -357 -135 -459 -30 -102
-61 -207 -70 -235 -8 -27 -15 -57 -15 -65 0 -13 54 -15 434 -15 285 0 432 3
430 10 -2 5 -42 143 -90 305 -47 162 -104 356 -126 430 -21 74 -64 221 -94
325 -30 105 -57 197 -60 206 -4 13 6 16 58 18 96 3 272 22 348 37 14 2 39 7
55 10 261 46 613 180 860 327 33 19 61 34 62 33 1 -1 -38 -245 -88 -541 -49
-297 -92 -555 -95 -573 -3 -19 -13 -80 -23 -135 l-17 -102 255 1 c141 1 259 2
264 3 4 0 5 16 1 33 -10 58 -55 322 -60 358 -5 28 -43 259 -79 470 -41 245
-85 515 -85 524 0 7 26 31 59 53 277 196 566 502 743 788 148 240 273 534 329
778 15 61 31 78 24 25 -2 -18 -6 -89 -10 -158 -3 -69 -8 -150 -10 -180 -2 -30
-6 -102 -9 -160 -4 -58 -9 -136 -11 -175 -2 -38 -7 -113 -10 -165 -15 -270
-21 -371 -30 -515 -3 -38 -7 -117 -10 -175 -4 -58 -8 -134 -10 -170 -2 -36 -6
-112 -10 -170 -3 -58 -8 -130 -10 -160 -2 -30 -7 -111 -10 -180 l-7 -125 169
1 c92 1 171 2 174 3 4 0 5 20 4 44 -3 38 -5 85 -20 342 -3 39 -7 117 -10 175
-3 58 -8 130 -10 160 -2 30 -7 107 -10 170 -4 63 -8 140 -10 170 -2 30 -6 107
-10 170 -3 63 -7 144 -10 180 -2 36 -7 108 -10 160 -12 210 -15 259 -20 340
-9 149 -14 232 -21 355 -3 66 -8 140 -11 165 -2 25 -6 182 -8 350 -3 284 -11
484 -20 520 -2 8 -6 37 -10 64 -24 190 -111 506 -187 676 -153 343 -330 603
-588 861 -391 392 -850 639 -1401 753 -42 8 -100 18 -130 21 -30 4 -59 8 -66
10 -43 14 -359 22 -498 14z m-132 -622 c-131 -219 -241 -397 -245 -397 -6 0
-125 53 -418 187 -36 16 -147 67 -248 113 l-183 83 28 23 c15 13 31 23 34 24
4 0 33 16 65 35 239 144 638 285 884 311 25 3 51 7 58 10 7 2 64 7 125 10 62
4 114 8 116 11 3 2 9 -1 13 -5 5 -5 -98 -186 -229 -405z m487 398 c317 -18
625 -103 930 -254 115 -58 270 -147 270 -156 0 -1 -57 -28 -127 -60 -71 -32
-157 -71 -193 -88 -36 -16 -90 -41 -120 -54 -30 -14 -92 -43 -138 -64 -46 -22
-85 -39 -87 -39 -1 0 -42 -18 -89 -40 -47 -22 -89 -40 -93 -40 -9 0 -476 774
-481 796 -2 8 2 12 10 10 7 -3 60 -7 118 -11z m-130 -131 c14 -24 114 -191
223 -372 108 -180 197 -332 197 -337 0 -6 -20 -31 -43 -56 -47 -51 -66 -74
-147 -169 -30 -36 -71 -83 -90 -105 -19 -22 -57 -67 -85 -99 -27 -33 -55 -64
-60 -70 -6 -6 -20 -23 -32 -39 l-21 -27 -239 277 c-131 153 -240 281 -241 286
-2 4 103 187 235 407 l238 399 20 -25 c11 -14 31 -45 45 -70z m-1076 -524
c220 -99 411 -187 426 -195 l27 -14 -13 -73 c-7 -40 -15 -84 -17 -98 -6 -31
-19 -100 -22 -120 -64 -372 -111 -600 -123 -600 -7 0 -68 18 -135 39 -67 22
-196 63 -287 91 -91 29 -203 64 -250 79 l-85 28 1 59 c0 32 4 142 8 244 5 102
9 223 11 270 2 47 6 168 10 270 4 102 7 193 7 202 -1 22 -36 36 442 -182z
m2462 13 c-4 -104 -9 -226 -11 -273 -2 -47 -7 -161 -10 -255 -7 -165 -12 -289
-14 -330 -1 -15 -16 -25 -68 -43 -38 -13 -111 -39 -163 -57 -339 -120 -442
-155 -449 -155 -4 0 -17 55 -29 123 -12 67 -24 136 -27 152 -3 17 -28 154 -56
305 -27 151 -51 283 -53 293 -5 19 7 26 209 117 28 12 136 62 240 110 105 47
210 95 234 106 24 10 78 36 120 56 42 20 78 37 80 37 1 1 0 -83 -3 -186z m109
115 c364 -283 666 -706 819 -1147 33 -95 77 -254 90 -324 3 -15 10 -53 15 -85
25 -137 41 -341 27 -343 -4 0 -22 12 -39 27 -18 16 -84 74 -147 129 -63 54
-117 102 -120 106 -3 3 -45 41 -95 84 -49 42 -97 85 -106 94 -8 9 -38 35 -65
58 -27 23 -61 52 -75 65 -15 12 -107 93 -204 178 l-177 155 7 210 c4 116 9
237 10 270 5 76 18 435 19 498 1 26 3 47 6 47 3 0 19 -10 35 -22z m-3080 -20
c-2 -18 -6 -123 -10 -233 -4 -110 -8 -231 -10 -270 -2 -38 -6 -160 -10 -270
l-6 -200 -139 -135 c-122 -119 -247 -239 -588 -565 -52 -49 -116 -110 -142
-135 -25 -25 -57 -54 -69 -65 l-22 -19 5 24 c3 14 7 66 11 115 16 250 94 563
198 800 75 171 191 366 310 525 105 139 427 459 463 460 7 0 10 -13 9 -32z
m1075 -433 c23 -27 63 -75 90 -105 181 -211 300 -352 300 -358 -1 -15 -590
-298 -590 -284 0 7 16 100 35 205 19 106 36 203 39 217 42 236 71 380 76 378
4 -2 26 -25 50 -53z m985 -102 c14 -79 28 -153 31 -165 2 -13 7 -39 10 -58 3
-19 22 -125 42 -236 l38 -201 -26 11 c-80 36 -561 280 -565 287 -3 4 23 41 57
81 35 40 72 84 84 98 292 341 297 347 301 334 1 -5 14 -73 28 -151z m-190
-581 l330 -167 169 -337 170 -337 -170 -338 -169 -338 -338 -168 -337 -168
-338 168 -337 168 -169 338 -169 337 169 338 169 337 330 167 c182 92 337 167
345 166 8 0 164 -75 345 -166z m-1656 -392 l225 -449 -225 -450 c-123 -248
-227 -451 -231 -451 -3 0 -24 17 -46 38 -21 20 -120 114 -218 209 -98 94 -195
186 -214 204 -36 33 -202 192 -371 356 l-96 93 81 79 c109 107 387 373 606
581 30 29 99 94 152 146 53 52 100 94 105 94 4 0 109 -203 232 -450z m-104
441 c28 -8 485 -152 600 -188 27 -9 53 -19 58 -23 4 -3 -59 -140 -141 -304
-109 -217 -151 -294 -159 -284 -10 14 -403 797 -403 804 0 6 12 5 45 -5z
m2792 -3 c-15 -39 -255 -624 -271 -663 -7 -16 -23 -56 -36 -88 l-23 -58 -148
297 c-82 164 -146 301 -142 305 8 7 52 23 358 131 94 33 186 65 205 73 46 17
63 18 57 3z m113 -11 c14 -12 77 -67 140 -122 63 -55 117 -102 120 -105 3 -3
41 -37 85 -75 44 -39 82 -72 85 -75 3 -3 95 -84 205 -180 110 -96 205 -179
211 -185 6 -5 41 -37 78 -69 62 -57 78 -80 57 -88 -5 -1 -94 -85 -198 -184
-103 -100 -208 -201 -233 -224 -25 -23 -130 -124 -235 -225 -238 -229 -256
-245 -264 -245 -3 0 -107 203 -230 450 l-224 450 28 72 c15 40 38 96 50 123
12 28 82 197 155 378 74 180 136 327 139 327 4 0 17 -10 31 -23z m-3944 -1002
c17 -16 118 -113 225 -215 106 -102 239 -228 294 -282 55 -53 120 -115 145
-138 132 -122 229 -224 228 -238 -1 -15 5 -175 17 -472 2 -52 7 -171 11 -265
3 -93 7 -189 8 -212 1 -24 -1 -43 -5 -43 -31 0 -331 289 -430 415 -321 406
-513 890 -544 1375 -3 47 -8 96 -11 109 -5 22 -4 23 13 10 10 -7 32 -27 49
-44z m4969 32 c-2 -7 -6 -55 -9 -107 -3 -52 -8 -104 -10 -115 -2 -11 -7 -45
-12 -75 -4 -30 -8 -57 -9 -60 -1 -3 -5 -25 -9 -50 -4 -25 -25 -106 -46 -181
-115 -407 -324 -769 -619 -1073 -87 -89 -255 -236 -270 -236 -5 0 -7 15 -6 33
2 17 6 122 10 232 4 110 8 229 10 265 2 36 6 157 10 270 l6 205 127 125 c71
69 182 177 248 240 67 63 208 198 314 300 107 102 208 199 225 216 29 31 48
36 40 11z m-3410 -289 c80 -160 142 -295 138 -299 -4 -4 -24 -12 -43 -17 -33
-9 -146 -45 -503 -157 -82 -26 -151 -45 -153 -42 -7 7 400 815 409 810 4 -2
73 -135 152 -295z m2155 -110 c110 -220 198 -403 196 -405 -2 -3 -71 16 -153
42 -81 26 -220 69 -308 96 -88 28 -178 56 -200 63 -22 7 -40 17 -40 22 0 19
290 592 297 588 4 -3 98 -185 208 -406z m1417 -100 c-3 -8 -6 -5 -6 6 -1 11 2
17 5 13 3 -3 4 -12 1 -19z m-3396 -175 c1 -21 4 -39 25 -148 9 -44 17 -91 19
-105 1 -14 11 -65 20 -115 9 -49 19 -101 21 -115 3 -14 14 -74 25 -135 12 -60
23 -123 26 -140 3 -16 8 -50 13 -74 l8 -43 -67 -30 c-36 -17 -91 -41 -121 -55
-30 -14 -77 -36 -105 -48 -27 -13 -81 -37 -120 -55 -88 -41 -364 -165 -431
-196 -32 -14 -51 -18 -51 -11 0 7 -4 98 -8 202 -4 105 -9 226 -10 270 -2 44
-7 168 -11 275 -4 107 -8 219 -8 249 l-1 55 100 32 c55 18 181 58 280 89 99
31 218 69 265 85 102 34 130 37 131 13z m1659 -42 c102 -33 268 -86 370 -118
l185 -59 -1 -59 c-2 -78 -14 -427 -19 -530 -9 -182 -17 -422 -16 -447 l1 -27
-42 18 c-24 10 -122 54 -218 98 -96 45 -204 94 -240 110 -36 17 -138 63 -227
103 -89 40 -164 77 -166 84 -2 6 8 74 23 151 15 77 51 274 80 438 43 236 57
297 69 297 9 0 99 -27 201 -59z m-1005 -252 c4 -5 0 -15 -7 -22 -7 -8 -33 -38
-58 -67 -25 -29 -50 -58 -55 -64 -6 -6 -62 -72 -125 -146 -63 -74 -129 -151
-147 -170 -18 -19 -33 -38 -33 -42 0 -5 -4 -8 -9 -8 -5 0 -11 17 -15 38 -3 20
-8 51 -11 67 -10 55 -37 200 -41 220 -6 30 -23 126 -29 160 -3 17 -14 80 -25
140 -11 61 -23 129 -26 152 l-6 43 291 -146 c160 -80 293 -149 296 -155z m711
250 c-4 -29 -8 -54 -10 -58 -2 -3 -7 -28 -10 -56 -4 -27 -11 -68 -16 -90 -9
-39 -13 -65 -25 -135 -3 -19 -14 -80 -25 -135 -10 -55 -26 -144 -36 -197 -10
-54 -20 -98 -23 -97 -3 0 -96 106 -206 236 -110 129 -208 244 -217 256 -10 11
-18 23 -18 26 0 5 574 297 589 300 1 1 0 -22 -3 -50z m-531 -423 c67 -79 83
-97 108 -126 57 -64 244 -286 251 -297 4 -8 -40 -92 -115 -215 -67 -112 -127
-212 -133 -223 -34 -61 -210 -352 -219 -363 -8 -10 -12 -8 -21 8 -6 11 -40 68
-76 127 -35 60 -70 119 -78 133 -7 14 -20 32 -28 41 -8 8 -14 18 -14 21 0 3
-59 104 -131 224 -72 120 -134 224 -136 231 -3 7 2 19 11 28 8 9 32 37 53 63
21 25 47 56 59 68 11 12 38 44 60 70 21 27 42 51 45 54 3 3 24 26 45 51 75 88
132 154 163 189 17 19 31 40 31 45 1 11 46 -36 125 -129z m-580 -592 c39 -64
77 -128 85 -143 21 -36 300 -501 317 -526 12 -20 11 -21 -35 -19 -66 3 -192
14 -222 19 -14 2 -45 7 -70 10 -283 38 -640 169 -920 338 l-84 51 96 45 c52
25 130 62 174 81 43 19 188 85 323 147 135 62 251 112 256 112 6 1 42 -51 80
-115z m1168 47 c83 -38 179 -81 212 -96 33 -16 137 -63 231 -105 94 -43 188
-87 209 -98 l39 -19 -100 -59 c-289 -170 -629 -293 -914 -330 -25 -3 -52 -7
-60 -9 -16 -4 -173 -17 -225 -19 -16 0 -30 4 -30 10 0 15 468 794 478 794 4 0
76 -31 160 -69z"/>
<path d="M3414 4540 c-50 -11 -133 -61 -171 -103 -19 -22 -47 -65 -62 -96 -22
-47 -26 -70 -26 -141 0 -76 4 -93 33 -152 38 -77 92 -130 171 -166 46 -22 71
-27 141 -27 77 0 92 3 152 33 77 38 128 91 166 172 22 46 26 70 27 140 0 71
-4 94 -26 141 -37 79 -90 133 -167 171 -53 26 -78 33 -136 34 -39 1 -85 -2
-102 -6z"/>
</g>
</svg>
